<svg width="444" height="48" viewBox="0 0 444 48" fill="none" xmlns="http://www.w3.org/2000/svg">
<path d="M0 44.4727C0.742188 44.1992 1.54297 44.0137 2.40234 43.916C3.26172 43.7988 4.0918 43.6914 4.89258 43.5938V8.20312L0.175781 7.29492C0.136719 7.19727 0.117188 7.04102 0.117188 6.82617C0.117188 6.5918 0.117188 6.40625 0.117188 6.26953C0.117188 5.97656 0.15625 5.67383 0.234375 5.36133C0.3125 5.04883 0.390625 4.82422 0.46875 4.6875H30.0293L30.4395 5.15625C30.459 5.89844 30.4297 6.75781 30.3516 7.73438C30.2734 8.69141 30.166 9.64844 30.0293 10.6055C29.9121 11.5625 29.7852 12.4512 29.6484 13.2715C29.5117 14.0723 29.3848 14.6875 29.2676 15.1172C28.8184 15.2148 28.3105 15.2637 27.7441 15.2637C27.1973 15.2441 26.6406 15.1953 26.0742 15.1172L25.5469 8.11523H10.166V23.4375L24.7559 23.2617C24.8535 23.8281 24.873 24.4727 24.8145 25.1953C24.7559 25.918 24.6777 26.5918 24.5801 27.2168L10.166 26.8945V43.5938H26.9238L28.8574 37.0605C29.4238 37.0215 29.9902 37.0215 30.5566 37.0605C31.1426 37.0996 31.6602 37.1875 32.1094 37.3242C32.0898 38.0078 32.0508 38.7695 31.9922 39.6094C31.9531 40.4492 31.8945 41.2988 31.8164 42.1582C31.7383 42.998 31.6602 43.8086 31.582 44.5898C31.5039 45.3711 31.4258 46.0547 31.3477 46.6406L30.7324 47.1094H0.263672L0 44.4727Z" fill="#000815"/>
<path d="M46.9043 47.959C44.7949 47.959 43.0859 47.5879 41.7773 46.8457C40.4883 46.1035 39.4824 45.1074 38.7598 43.8574C38.0566 42.5879 37.5879 41.1133 37.3535 39.4336C37.1191 37.7539 37.002 35.9766 37.002 34.1016C37.002 31.3477 37.3047 28.9844 37.9102 27.0117C38.5352 25.0391 39.4238 23.418 40.5762 22.1484C41.748 20.8594 43.1738 19.9219 44.8535 19.3359C46.5527 18.7305 48.4766 18.4277 50.625 18.4277C51.0352 18.4277 51.5137 18.4473 52.0605 18.4863C52.6074 18.5254 53.1836 18.5938 53.7891 18.6914C54.3945 18.7891 55.0098 18.9258 55.6348 19.1016C56.2793 19.2578 56.8945 19.4531 57.4805 19.6875V4.04297H51.8555L51.5332 1.52344C51.7676 1.42578 52.1875 1.29883 52.793 1.14258C53.3984 0.966797 54.0625 0.800781 54.7852 0.644531C55.5273 0.46875 56.2793 0.322266 57.041 0.205078C57.8027 0.0683594 58.457 0 59.0039 0C59.8242 0 60.4492 0.107422 60.8789 0.322266C61.3281 0.537109 61.6602 0.810547 61.875 1.14258C62.1094 1.45508 62.2461 1.79688 62.2852 2.16797C62.3438 2.53906 62.3828 2.87109 62.4023 3.16406V44.0039H68.0566L68.291 46.4355C68.0566 46.5332 67.6562 46.6699 67.0898 46.8457C66.543 47.0215 65.9277 47.1875 65.2441 47.3438C64.5801 47.5195 63.8867 47.666 63.1641 47.7832C62.4609 47.9004 61.8359 47.959 61.2891 47.959C60.4883 47.959 59.8535 47.8418 59.3848 47.6074C58.9355 47.3926 58.5938 47.1289 58.3594 46.8164C58.1445 46.4844 58.0078 46.1328 57.9492 45.7617C57.9102 45.3711 57.8906 45.0293 57.8906 44.7363V43.7402H57.8027C57.2559 44.209 56.5527 44.6973 55.6934 45.2051C54.8535 45.6934 53.9355 46.1426 52.9395 46.5527C51.9629 46.9629 50.9473 47.2949 49.8926 47.5488C48.8379 47.8223 47.8418 47.959 46.9043 47.959ZM48.2227 44.0625C48.9648 44.0625 49.7461 43.9746 50.5664 43.7988C51.4062 43.623 52.2363 43.3887 53.0566 43.0957C53.877 42.8027 54.668 42.4707 55.4297 42.0996C56.1914 41.7285 56.875 41.3477 57.4805 40.957V22.5879C56.8945 22.4512 56.084 22.3047 55.0488 22.1484C54.0332 21.9922 52.9297 21.9141 51.7383 21.9141C49.668 21.9141 48.0078 22.2168 46.7578 22.8223C45.5078 23.4082 44.541 24.248 43.8574 25.3418C43.1934 26.416 42.7441 27.7051 42.5098 29.209C42.2949 30.7129 42.1875 32.3633 42.1875 34.1602C42.1875 35.6836 42.2656 37.0605 42.4219 38.291C42.5781 39.502 42.8711 40.5371 43.3008 41.3965C43.75 42.2559 44.3652 42.9199 45.1465 43.3887C45.9473 43.8379 46.9727 44.0625 48.2227 44.0625Z" fill="#000815"/>
<path d="M75.293 22.4707H70.9277L70.5762 20.0391C70.8301 19.9414 71.1816 19.8047 71.6309 19.6289C72.0996 19.4336 72.6172 19.248 73.1836 19.0723C73.7695 18.8965 74.3652 18.75 74.9707 18.6328C75.5957 18.4961 76.1816 18.4277 76.7285 18.4277C77.5488 18.4277 78.1836 18.5352 78.6328 18.75C79.1016 18.9648 79.4434 19.2285 79.6582 19.541C79.8926 19.8535 80.0293 20.1953 80.0684 20.5664C80.127 20.9375 80.1562 21.2695 80.1562 21.5625V38.2617C80.1562 39.4141 80.2344 40.3516 80.3906 41.0742C80.5469 41.7969 80.8105 42.3633 81.1816 42.7734C81.5527 43.1836 82.041 43.4668 82.6465 43.623C83.252 43.7598 84.0137 43.8379 84.9316 43.8574C85.5371 43.877 86.2207 43.8184 86.9824 43.6816C87.7637 43.5254 88.5449 43.3301 89.3262 43.0957C90.1074 42.8418 90.8594 42.5586 91.582 42.2461C92.3242 41.9336 92.9688 41.6211 93.5156 41.3086V22.4707H88.4473L88.0957 19.9512C88.3496 19.8535 88.7402 19.7168 89.2676 19.541C89.8145 19.3652 90.4102 19.1992 91.0547 19.043C91.7188 18.8672 92.3926 18.7207 93.0762 18.6035C93.7598 18.4863 94.3848 18.4277 94.9512 18.4277C95.7715 18.4277 96.4062 18.5352 96.8555 18.75C97.3047 18.9648 97.6367 19.2285 97.8516 19.541C98.0859 19.8535 98.2227 20.1953 98.2617 20.5664C98.3203 20.9375 98.3496 21.2695 98.3496 21.5625V44.0039H103.682L103.887 46.4355C103.652 46.5332 103.262 46.6699 102.715 46.8457C102.188 47.0215 101.602 47.1875 100.957 47.3438C100.312 47.5195 99.6387 47.666 98.9355 47.7832C98.252 47.9004 97.6367 47.959 97.0898 47.959C96.2695 47.959 95.6348 47.8418 95.1855 47.6074C94.7363 47.3926 94.4043 47.1289 94.1895 46.8164C93.9746 46.4844 93.8379 46.1328 93.7793 45.7617C93.7402 45.3711 93.7207 45.0293 93.7207 44.7363V43.5352H93.6328C93.125 43.9258 92.4805 44.3848 91.6992 44.9121C90.918 45.4199 90.0391 45.8984 89.0625 46.3477C88.1055 46.7969 87.0801 47.1777 85.9863 47.4902C84.8926 47.8027 83.7891 47.959 82.6758 47.959C81.3281 47.959 80.1855 47.8223 79.248 47.5488C78.3105 47.2754 77.5488 46.7871 76.9629 46.084C76.377 45.3613 75.9473 44.3945 75.6738 43.1836C75.4199 41.9531 75.293 40.4004 75.293 38.5254V22.4707Z" fill="#000815"/>
<path d="M107.227 40.5762C107.305 38.8574 107.725 37.4512 108.486 36.3574C109.248 35.2441 110.264 34.3652 111.533 33.7207C112.803 33.0566 114.297 32.5781 116.016 32.2852C117.754 31.9922 119.648 31.7871 121.699 31.6699L123.691 31.5234V28.4766C123.672 27.168 123.564 26.123 123.369 25.3418C123.174 24.541 122.842 23.9258 122.373 23.4961C121.924 23.0664 121.309 22.793 120.527 22.6758C119.766 22.5391 118.818 22.4707 117.686 22.4707C116.357 22.4707 115.078 22.627 113.848 22.9395C112.617 23.2324 111.387 23.6035 110.156 24.0527L108.955 21.2109C109.209 21.0742 109.629 20.8594 110.215 20.5664C110.82 20.2539 111.553 19.9414 112.412 19.6289C113.271 19.3164 114.248 19.043 115.342 18.8086C116.455 18.5547 117.656 18.4277 118.945 18.4277C120.82 18.4277 122.373 18.6035 123.604 18.9551C124.854 19.3066 125.84 19.8828 126.562 20.6836C127.285 21.4844 127.793 22.5391 128.086 23.8477C128.379 25.1562 128.525 26.7676 128.525 28.6816V44.0039H134.004L134.209 46.4355C133.975 46.5332 133.594 46.6699 133.066 46.8457C132.539 47.0215 131.953 47.1875 131.309 47.3438C130.664 47.5195 130 47.666 129.316 47.7832C128.633 47.9004 128.018 47.959 127.471 47.959C126.65 47.959 126.006 47.8418 125.537 47.6074C125.088 47.3926 124.746 47.1289 124.512 46.8164C124.297 46.4844 124.16 46.1328 124.102 45.7617C124.062 45.3711 124.043 45.0293 124.043 44.7363V43.3594H123.984C123.516 43.8281 122.939 44.3359 122.256 44.8828C121.592 45.4297 120.85 45.9277 120.029 46.377C119.209 46.8262 118.32 47.1973 117.363 47.4902C116.406 47.8027 115.41 47.959 114.375 47.959C113.574 47.959 112.744 47.8613 111.885 47.666C111.045 47.4902 110.273 47.1484 109.57 46.6406C108.887 46.1328 108.32 45.4395 107.871 44.5605C107.441 43.6816 107.227 42.5488 107.227 41.1621V40.5762ZM112.266 40.5176C112.266 41.2207 112.363 41.7969 112.559 42.2461C112.773 42.6953 113.057 43.0566 113.408 43.3301C113.76 43.6035 114.15 43.7988 114.58 43.916C115.029 44.0137 115.488 44.0625 115.957 44.0625C116.445 44.0625 116.982 44.0137 117.568 43.916C118.154 43.7988 118.779 43.623 119.443 43.3887C120.107 43.1543 120.791 42.8418 121.494 42.4512C122.217 42.0605 122.949 41.582 123.691 41.0156V34.1016L121.406 34.3066C118.281 34.5801 115.977 35.2148 114.492 36.2109C113.008 37.1875 112.266 38.623 112.266 40.5176Z" fill="#000815"/>
<path d="M137.549 44.8242C138.291 44.5703 139.072 44.3848 139.893 44.2676C140.732 44.1309 141.523 43.9941 142.266 43.8574V22.4707H137.021L136.641 19.9512C137.07 19.7754 137.598 19.5996 138.223 19.4238C138.848 19.248 139.482 19.0918 140.127 18.9551C140.791 18.7988 141.426 18.6719 142.031 18.5742C142.656 18.4766 143.174 18.4277 143.584 18.4277C144.404 18.4277 145.039 18.5352 145.488 18.75C145.957 18.9648 146.299 19.2578 146.514 19.6289C146.748 19.9805 146.885 20.4102 146.924 20.918C146.963 21.4062 146.982 21.9238 146.982 22.4707V24.7266C147.061 24.5508 147.197 24.2871 147.393 23.9355C147.588 23.584 147.793 23.2227 148.008 22.8516C148.242 22.4609 148.467 22.0898 148.682 21.7383C148.916 21.3867 149.111 21.123 149.268 20.9473C149.893 20.1465 150.674 19.5117 151.611 19.043C152.568 18.5547 153.74 18.3105 155.127 18.3105C155.264 18.3105 155.449 18.3203 155.684 18.3398C155.918 18.3398 156.162 18.3496 156.416 18.3691C156.67 18.3887 156.924 18.418 157.178 18.457C157.432 18.4766 157.656 18.5156 157.852 18.5742C157.871 18.8086 157.881 19.1113 157.881 19.4824C157.9 19.8535 157.9 20.2539 157.881 20.6836C157.881 21.1133 157.861 21.5527 157.822 22.002C157.803 22.4316 157.764 22.832 157.705 23.2031C157.373 23.1445 156.963 23.0859 156.475 23.0273C155.986 22.9688 155.43 22.9395 154.805 22.9395C154.062 22.9395 153.33 23.0078 152.607 23.1445C151.885 23.2617 151.23 23.4473 150.645 23.7012C149.902 24.0137 149.268 24.4336 148.74 24.9609C148.213 25.4883 147.695 26.0645 147.188 26.6895V43.8574L153.955 44.5312C153.994 44.6289 154.014 44.7949 154.014 45.0293C154.014 45.2637 154.014 45.4492 154.014 45.5859C154.014 45.8594 153.994 46.1523 153.955 46.4648C153.936 46.7578 153.887 46.9727 153.809 47.1094H137.812L137.549 44.8242Z" fill="#000815"/>
<path d="M171.533 47.959C169.424 47.959 167.715 47.5879 166.406 46.8457C165.117 46.1035 164.111 45.1074 163.389 43.8574C162.686 42.5879 162.217 41.1133 161.982 39.4336C161.748 37.7539 161.631 35.9766 161.631 34.1016C161.631 31.3477 161.934 28.9844 162.539 27.0117C163.164 25.0391 164.053 23.418 165.205 22.1484C166.377 20.8594 167.803 19.9219 169.482 19.3359C171.182 18.7305 173.105 18.4277 175.254 18.4277C175.664 18.4277 176.143 18.4473 176.689 18.4863C177.236 18.5254 177.812 18.5938 178.418 18.6914C179.023 18.7891 179.639 18.9258 180.264 19.1016C180.908 19.2578 181.523 19.4531 182.109 19.6875V4.04297H176.484L176.162 1.52344C176.396 1.42578 176.816 1.29883 177.422 1.14258C178.027 0.966797 178.691 0.800781 179.414 0.644531C180.156 0.46875 180.908 0.322266 181.67 0.205078C182.432 0.0683594 183.086 0 183.633 0C184.453 0 185.078 0.107422 185.508 0.322266C185.957 0.537109 186.289 0.810547 186.504 1.14258C186.738 1.45508 186.875 1.79688 186.914 2.16797C186.973 2.53906 187.012 2.87109 187.031 3.16406V44.0039H192.686L192.92 46.4355C192.686 46.5332 192.285 46.6699 191.719 46.8457C191.172 47.0215 190.557 47.1875 189.873 47.3438C189.209 47.5195 188.516 47.666 187.793 47.7832C187.09 47.9004 186.465 47.959 185.918 47.959C185.117 47.959 184.482 47.8418 184.014 47.6074C183.564 47.3926 183.223 47.1289 182.988 46.8164C182.773 46.4844 182.637 46.1328 182.578 45.7617C182.539 45.3711 182.52 45.0293 182.52 44.7363V43.7402H182.432C181.885 44.209 181.182 44.6973 180.322 45.2051C179.482 45.6934 178.564 46.1426 177.568 46.5527C176.592 46.9629 175.576 47.2949 174.521 47.5488C173.467 47.8223 172.471 47.959 171.533 47.959ZM172.852 44.0625C173.594 44.0625 174.375 43.9746 175.195 43.7988C176.035 43.623 176.865 43.3887 177.686 43.0957C178.506 42.8027 179.297 42.4707 180.059 42.0996C180.82 41.7285 181.504 41.3477 182.109 40.957V22.5879C181.523 22.4512 180.713 22.3047 179.678 22.1484C178.662 21.9922 177.559 21.9141 176.367 21.9141C174.297 21.9141 172.637 22.2168 171.387 22.8223C170.137 23.4082 169.17 24.248 168.486 25.3418C167.822 26.416 167.373 27.7051 167.139 29.209C166.924 30.7129 166.816 32.3633 166.816 34.1602C166.816 35.6836 166.895 37.0605 167.051 38.291C167.207 39.502 167.5 40.5371 167.93 41.3965C168.379 42.2559 168.994 42.9199 169.775 43.3887C170.576 43.8379 171.602 44.0625 172.852 44.0625Z" fill="#000815"/>
<path d="M196.611 33.1934C196.611 31.1426 196.895 29.2285 197.461 27.4512C198.047 25.6543 198.936 24.0918 200.127 22.7637C201.338 21.416 202.852 20.3613 204.668 19.5996C206.504 18.8184 208.682 18.4277 211.201 18.4277C213.721 18.4277 215.781 18.8184 217.383 19.5996C218.984 20.3613 220.244 21.416 221.162 22.7637C222.1 24.0918 222.744 25.6543 223.096 27.4512C223.447 29.2285 223.623 31.1426 223.623 33.1934C223.623 35.2441 223.33 37.168 222.744 38.9648C222.158 40.7422 221.26 42.3047 220.049 43.6523C218.857 44.9805 217.344 46.0352 215.508 46.8164C213.672 47.5781 211.504 47.959 209.004 47.959C206.484 47.959 204.424 47.5781 202.822 46.8164C201.221 46.0352 199.961 44.9805 199.043 43.6523C198.125 42.3047 197.49 40.7422 197.139 38.9648C196.787 37.168 196.611 35.2441 196.611 33.1934ZM202.002 33.1934C202.002 35.5762 202.188 37.5195 202.559 39.0234C202.93 40.5273 203.457 41.709 204.141 42.5684C204.844 43.4277 205.693 44.0234 206.689 44.3555C207.686 44.668 208.818 44.8242 210.088 44.8242C211.221 44.8242 212.275 44.668 213.252 44.3555C214.248 44.0234 215.107 43.4277 215.83 42.5684C216.572 41.709 217.148 40.5273 217.559 39.0234C217.988 37.5195 218.203 35.5762 218.203 33.1934C218.203 30.8301 218.018 28.8965 217.646 27.3926C217.275 25.8691 216.738 24.6777 216.035 23.8184C215.352 22.959 214.502 22.373 213.486 22.0605C212.49 21.7285 211.357 21.5625 210.088 21.5625C208.975 21.5625 207.92 21.7285 206.924 22.0605C205.947 22.373 205.088 22.959 204.346 23.8184C203.623 24.6777 203.047 25.8691 202.617 27.3926C202.207 28.8965 202.002 30.8301 202.002 33.1934Z" fill="#000815"/>
<path d="M243.398 44.3262C244.141 44.0527 244.941 43.8574 245.801 43.7402C246.66 43.6035 247.49 43.4766 248.291 43.3594V8.11523L243.574 7.29492C243.535 7.19727 243.516 7.04102 243.516 6.82617C243.516 6.5918 243.516 6.40625 243.516 6.26953C243.516 5.97656 243.555 5.67383 243.633 5.36133C243.711 5.04883 243.789 4.82422 243.867 4.6875H260.625C262.988 4.6875 265 4.89258 266.66 5.30273C268.34 5.71289 269.697 6.33789 270.732 7.17773C271.768 7.99805 272.52 9.0332 272.988 10.2832C273.477 11.5332 273.721 13.0078 273.721 14.707C273.721 15.7812 273.584 16.8164 273.311 17.8125C273.037 18.7891 272.637 19.6973 272.109 20.5371C271.582 21.377 270.947 22.1191 270.205 22.7637C269.463 23.4082 268.623 23.9258 267.686 24.3164C270.576 24.7461 272.773 25.8203 274.277 27.5391C275.801 29.2578 276.562 31.6406 276.562 34.6875C276.562 36.8555 276.24 38.7207 275.596 40.2832C274.951 41.8457 273.955 43.1348 272.607 44.1504C271.279 45.166 269.58 45.918 267.51 46.4062C265.439 46.875 262.988 47.1094 260.156 47.1094H243.662L243.398 44.3262ZM258.633 23.4375H259.717C261.416 23.3789 262.822 23.1055 263.936 22.6172C265.049 22.1289 265.928 21.5039 266.572 20.7422C267.236 19.9609 267.695 19.082 267.949 18.1055C268.223 17.1094 268.359 16.0742 268.359 15C268.359 13.8086 268.203 12.7734 267.891 11.8945C267.598 11.0156 267.051 10.293 266.25 9.72656C265.469 9.16016 264.395 8.74023 263.027 8.4668C261.68 8.19336 259.951 8.05664 257.842 8.05664L253.564 8.11523V23.584L258.633 23.4375ZM254.941 43.6523C255.957 43.7109 256.787 43.75 257.432 43.7695C258.096 43.7891 258.643 43.8086 259.072 43.8281C259.502 43.8477 259.854 43.8574 260.127 43.8574C260.4 43.8574 260.654 43.8574 260.889 43.8574C262.783 43.8379 264.375 43.6719 265.664 43.3594C266.953 43.0273 267.988 42.5195 268.77 41.8359C269.57 41.1328 270.137 40.2344 270.469 39.1406C270.82 38.0469 270.996 36.709 270.996 35.127V34.6875C270.996 33.0273 270.723 31.6699 270.176 30.6152C269.629 29.5605 268.818 28.7305 267.744 28.125C266.689 27.5195 265.381 27.1094 263.818 26.8945C262.275 26.6602 260.498 26.543 258.486 26.543L253.564 26.6895V43.5352L254.941 43.6523Z" fill="#000815"/>
<path d="M281.602 40.5762C281.68 38.8574 282.1 37.4512 282.861 36.3574C283.623 35.2441 284.639 34.3652 285.908 33.7207C287.178 33.0566 288.672 32.5781 290.391 32.2852C292.129 31.9922 294.023 31.7871 296.074 31.6699L298.066 31.5234V28.4766C298.047 27.168 297.939 26.123 297.744 25.3418C297.549 24.541 297.217 23.9258 296.748 23.4961C296.299 23.0664 295.684 22.793 294.902 22.6758C294.141 22.5391 293.193 22.4707 292.061 22.4707C290.732 22.4707 289.453 22.627 288.223 22.9395C286.992 23.2324 285.762 23.6035 284.531 24.0527L283.33 21.2109C283.584 21.0742 284.004 20.8594 284.59 20.5664C285.195 20.2539 285.928 19.9414 286.787 19.6289C287.646 19.3164 288.623 19.043 289.717 18.8086C290.83 18.5547 292.031 18.4277 293.32 18.4277C295.195 18.4277 296.748 18.6035 297.979 18.9551C299.229 19.3066 300.215 19.8828 300.938 20.6836C301.66 21.4844 302.168 22.5391 302.461 23.8477C302.754 25.1562 302.9 26.7676 302.9 28.6816V44.0039H308.379L308.584 46.4355C308.35 46.5332 307.969 46.6699 307.441 46.8457C306.914 47.0215 306.328 47.1875 305.684 47.3438C305.039 47.5195 304.375 47.666 303.691 47.7832C303.008 47.9004 302.393 47.959 301.846 47.959C301.025 47.959 300.381 47.8418 299.912 47.6074C299.463 47.3926 299.121 47.1289 298.887 46.8164C298.672 46.4844 298.535 46.1328 298.477 45.7617C298.438 45.3711 298.418 45.0293 298.418 44.7363V43.3594H298.359C297.891 43.8281 297.314 44.3359 296.631 44.8828C295.967 45.4297 295.225 45.9277 294.404 46.377C293.584 46.8262 292.695 47.1973 291.738 47.4902C290.781 47.8027 289.785 47.959 288.75 47.959C287.949 47.959 287.119 47.8613 286.26 47.666C285.42 47.4902 284.648 47.1484 283.945 46.6406C283.262 46.1328 282.695 45.4395 282.246 44.5605C281.816 43.6816 281.602 42.5488 281.602 41.1621V40.5762ZM286.641 40.5176C286.641 41.2207 286.738 41.7969 286.934 42.2461C287.148 42.6953 287.432 43.0566 287.783 43.3301C288.135 43.6035 288.525 43.7988 288.955 43.916C289.404 44.0137 289.863 44.0625 290.332 44.0625C290.82 44.0625 291.357 44.0137 291.943 43.916C292.529 43.7988 293.154 43.623 293.818 43.3887C294.482 43.1543 295.166 42.8418 295.869 42.4512C296.592 42.0605 297.324 41.582 298.066 41.0156V34.1016L295.781 34.3066C292.656 34.5801 290.352 35.2148 288.867 36.2109C287.383 37.1875 286.641 38.623 286.641 40.5176Z" fill="#000815"/>
<path d="M311.924 44.8242C312.666 44.5703 313.447 44.3848 314.268 44.2676C315.107 44.1309 315.898 43.9941 316.641 43.8574V22.4707H311.396L311.016 19.9512C311.445 19.7754 311.973 19.5996 312.598 19.4238C313.223 19.248 313.857 19.0918 314.502 18.9551C315.166 18.7988 315.801 18.6719 316.406 18.5742C317.031 18.4766 317.549 18.4277 317.959 18.4277C318.779 18.4277 319.414 18.5352 319.863 18.75C320.332 18.9648 320.674 19.2578 320.889 19.6289C321.123 19.9805 321.26 20.4102 321.299 20.918C321.338 21.4062 321.357 21.9238 321.357 22.4707V24.7266C321.436 24.5508 321.572 24.2871 321.768 23.9355C321.963 23.584 322.168 23.2227 322.383 22.8516C322.617 22.4609 322.842 22.0898 323.057 21.7383C323.291 21.3867 323.486 21.123 323.643 20.9473C324.268 20.1465 325.049 19.5117 325.986 19.043C326.943 18.5547 328.115 18.3105 329.502 18.3105C329.639 18.3105 329.824 18.3203 330.059 18.3398C330.293 18.3398 330.537 18.3496 330.791 18.3691C331.045 18.3887 331.299 18.418 331.553 18.457C331.807 18.4766 332.031 18.5156 332.227 18.5742C332.246 18.8086 332.256 19.1113 332.256 19.4824C332.275 19.8535 332.275 20.2539 332.256 20.6836C332.256 21.1133 332.236 21.5527 332.197 22.002C332.178 22.4316 332.139 22.832 332.08 23.2031C331.748 23.1445 331.338 23.0859 330.85 23.0273C330.361 22.9688 329.805 22.9395 329.18 22.9395C328.438 22.9395 327.705 23.0078 326.982 23.1445C326.26 23.2617 325.605 23.4473 325.02 23.7012C324.277 24.0137 323.643 24.4336 323.115 24.9609C322.588 25.4883 322.07 26.0645 321.562 26.6895V43.8574L328.33 44.5312C328.369 44.6289 328.389 44.7949 328.389 45.0293C328.389 45.2637 328.389 45.4492 328.389 45.5859C328.389 45.8594 328.369 46.1523 328.33 46.4648C328.311 46.7578 328.262 46.9727 328.184 47.1094H312.188L311.924 44.8242Z" fill="#000815"/>
<path d="M338.701 22.3242H334.688C334.609 21.8359 334.58 21.3867 334.6 20.9766C334.639 20.5664 334.707 20.1172 334.805 19.6289L338.701 19.2773L339.961 11.25H343.477V19.2773H352.266C352.383 20.2734 352.383 21.2891 352.266 22.3242H343.477V37.4121C343.477 38.9551 343.516 40.1855 343.594 41.1035C343.672 42.0215 343.838 42.7246 344.092 43.2129C344.346 43.6816 344.707 43.9844 345.176 44.1211C345.664 44.2578 346.318 44.3262 347.139 44.3262C347.51 44.3262 347.949 44.2969 348.457 44.2383C348.965 44.1797 349.473 44.1016 349.98 44.0039C350.508 43.8867 351.006 43.7695 351.475 43.6523C351.943 43.5156 352.344 43.3691 352.676 43.2129L353.584 45.7324C352.979 46.084 352.314 46.4062 351.592 46.6992C350.889 46.9727 350.166 47.1973 349.424 47.373C348.682 47.5684 347.939 47.7148 347.197 47.8125C346.475 47.9102 345.781 47.959 345.117 47.959C343.984 47.959 343.037 47.832 342.275 47.5781C341.533 47.3242 340.918 46.9727 340.43 46.5234C339.961 46.0547 339.609 45.498 339.375 44.8535C339.141 44.1895 338.965 43.457 338.848 42.6562C338.75 41.8555 338.701 40.9961 338.701 40.0781C338.701 39.1406 338.701 38.1641 338.701 37.1484V22.3242Z" fill="#000815"/>
<path d="M357.568 44.8242C358.291 44.6094 359.053 44.4336 359.854 44.2969C360.674 44.1406 361.436 43.9941 362.139 43.8574V22.4707H357.1L356.748 19.9512C356.982 19.8535 357.363 19.7168 357.891 19.541C358.438 19.3652 359.043 19.1992 359.707 19.043C360.391 18.8672 361.074 18.7207 361.758 18.6035C362.461 18.4863 363.096 18.4277 363.662 18.4277C364.482 18.4277 365.117 18.5352 365.566 18.75C366.016 18.9648 366.348 19.2285 366.562 19.541C366.777 19.8535 366.904 20.1953 366.943 20.5664C367.002 20.9375 367.041 21.2695 367.061 21.5625V22.0605C368.721 20.8301 370.352 19.9219 371.953 19.3359C373.555 18.7305 375.244 18.4277 377.021 18.4277C378.564 18.4277 379.854 18.5645 380.889 18.8379C381.943 19.1113 382.783 19.5996 383.408 20.3027C384.053 21.0059 384.512 21.9727 384.785 23.2031C385.059 24.4141 385.195 25.9668 385.195 27.8613V43.9453L389.795 44.7363C389.834 44.8535 389.854 44.9902 389.854 45.1465C389.854 45.3027 389.854 45.4492 389.854 45.5859C389.854 45.8594 389.805 46.1523 389.707 46.4648C389.629 46.7578 389.551 46.9727 389.473 47.1094H376.523L376.318 44.8242C377.021 44.6094 377.686 44.4434 378.311 44.3262C378.936 44.209 379.59 44.082 380.273 43.9453V28.1543C380.273 27.041 380.195 26.1133 380.039 25.3711C379.902 24.6289 379.658 24.043 379.307 23.6133C378.955 23.1641 378.496 22.8516 377.93 22.6758C377.363 22.4805 376.67 22.3828 375.85 22.3828C374.971 22.3828 374.141 22.4219 373.359 22.5C372.598 22.5781 371.865 22.6953 371.162 22.8516C370.459 23.0078 369.775 23.2031 369.111 23.4375C368.447 23.6719 367.764 23.9453 367.061 24.2578V43.8574L371.689 44.7363C371.729 44.8535 371.748 44.9902 371.748 45.1465C371.748 45.3027 371.748 45.4492 371.748 45.5859C371.748 45.8594 371.709 46.1523 371.631 46.4648C371.572 46.7578 371.504 46.9727 371.426 47.1094H357.832L357.568 44.8242Z" fill="#000815"/>
<path d="M401.104 11.7773C400.635 11.7773 400.186 11.7285 399.756 11.6309C399.346 11.5137 398.984 11.3281 398.672 11.0742C398.359 10.8008 398.115 10.4492 397.939 10.0195C397.764 9.58984 397.676 9.05273 397.676 8.4082C397.676 7.76367 397.764 7.22656 397.939 6.79688C398.115 6.36719 398.359 6.02539 398.672 5.77148C398.984 5.49805 399.346 5.3125 399.756 5.21484C400.186 5.09766 400.635 5.03906 401.104 5.03906C401.572 5.03906 402.002 5.09766 402.393 5.21484C402.803 5.3125 403.164 5.49805 403.477 5.77148C403.789 6.02539 404.033 6.36719 404.209 6.79688C404.385 7.22656 404.473 7.76367 404.473 8.4082C404.473 9.05273 404.385 9.58984 404.209 10.0195C404.033 10.4492 403.789 10.8008 403.477 11.0742C403.164 11.3281 402.803 11.5137 402.393 11.6309C402.002 11.7285 401.572 11.7773 401.104 11.7773ZM394.365 44.8242C395.107 44.5703 395.908 44.3848 396.768 44.2676C397.646 44.1309 398.457 43.9941 399.199 43.8574V22.4707H394.219L393.896 19.9512C394.268 19.8145 394.746 19.6582 395.332 19.4824C395.938 19.2871 396.562 19.1211 397.207 18.9844C397.852 18.8281 398.486 18.7012 399.111 18.6035C399.736 18.4863 400.273 18.4277 400.723 18.4277C401.562 18.4277 402.207 18.5352 402.656 18.75C403.125 18.9648 403.457 19.2285 403.652 19.541C403.867 19.8535 403.994 20.1953 404.033 20.5664C404.072 20.9375 404.102 21.2695 404.121 21.5625V43.8574L409.16 44.7363C409.199 45.127 409.199 45.5371 409.16 45.9668C409.121 46.3965 409.033 46.7773 408.896 47.1094H394.629L394.365 44.8242Z" fill="#000815"/>
<path d="M412.793 44.8242C413.027 44.7656 413.32 44.6973 413.672 44.6191C414.043 44.541 414.453 44.4629 414.902 44.3848C415.352 44.2871 415.82 44.1992 416.309 44.1211C416.797 44.0234 417.275 43.9258 417.744 43.8281V4.04297H412.646L412.324 1.52344C412.559 1.42578 412.949 1.29883 413.496 1.14258C414.043 0.966797 414.648 0.800781 415.312 0.644531C415.977 0.46875 416.65 0.322266 417.334 0.205078C418.037 0.0683594 418.672 0 419.238 0C420.059 0 420.693 0.107422 421.143 0.322266C421.592 0.537109 421.924 0.810547 422.139 1.14258C422.373 1.45508 422.51 1.79688 422.549 2.16797C422.607 2.53906 422.637 2.87109 422.637 3.16406V31.8457C423.516 31.2207 424.473 30.5176 425.508 29.7363C426.562 28.9355 427.627 28.1152 428.701 27.2754C429.795 26.416 430.879 25.5566 431.953 24.6973C433.027 23.8379 434.033 23.0273 434.971 22.2656C434.502 22.2266 434.014 22.1875 433.506 22.1484C432.998 22.0898 432.51 22.041 432.041 22.002C431.592 21.9434 431.172 21.8848 430.781 21.8262C430.41 21.748 430.117 21.6797 429.902 21.6211C429.863 21.3086 429.863 20.918 429.902 20.4492C429.941 19.9805 430.029 19.5898 430.166 19.2773H441.475L441.592 21.6797L440.713 22.207L429.756 30.7031C430.42 31.6797 431.123 32.7441 431.865 33.8965C432.607 35.0488 433.369 36.1914 434.15 37.3242C434.932 38.4375 435.723 39.4824 436.523 40.459C437.344 41.4355 438.164 42.2168 438.984 42.8027C439.16 42.9199 439.434 43.0566 439.805 43.2129C440.176 43.3691 440.576 43.5254 441.006 43.6816C441.455 43.8379 441.895 43.9844 442.324 44.1211C442.773 44.2383 443.145 44.3359 443.438 44.4141L443.496 46.3184C443.086 46.6895 442.578 46.9727 441.973 47.168C441.367 47.3633 440.742 47.4805 440.098 47.5195C439.453 47.5781 438.809 47.5586 438.164 47.4609C437.539 47.3633 436.982 47.1973 436.494 46.9629C436.006 46.7285 435.479 46.3477 434.912 45.8203C434.365 45.293 433.701 44.502 432.92 43.4473C432.139 42.373 431.221 40.9863 430.166 39.2871C429.111 37.5684 427.842 35.4004 426.357 32.7832L422.578 34.8926V43.8867L427.266 44.7363C427.363 45.0879 427.373 45.498 427.295 45.9668C427.236 46.416 427.139 46.7969 427.002 47.1094H413.086L412.793 44.8242Z" fill="#000815"/>
</svg>
